<svg xmlns="http://www.w3.org/2000/svg" viewBox="0 0 220 220" role="img" aria-label="AirPods icon">
  <rect width="220" height="220" rx="44" fill="#f5f5f7"/>
  <g fill="none" stroke="#1d1d1f" stroke-width="9" stroke-linecap="round" stroke-linejoin="round">
    <path d="M79 62c-13 0-24 11-24 24 0 10 7 19 16 22v33"/>
    <path d="M84 79c0-9-7-16-16-16"/>
    <path d="M89 94c0 8-7 15-15 15"/>
    <path d="M141 62c13 0 24 11 24 24 0 10-7 19-16 22v33"/>
    <path d="M136 79c0-9 7-16 16-16"/>
    <path d="M131 94c0 8 7 15 15 15"/>
  </g>
</svg>
